<svg width="21" height="20" viewBox="0 0 21 20" fill="none" xmlns="http://www.w3.org/2000/svg">
<path d="M3.16167 11.7309C2.12132 12.7569 2.03693 14.6814 2.28042 16.4591C2.50134 18.072 4.3161 18.8322 5.67662 17.9803C8.16546 16.4218 10.7649 14.3685 13.2555 11.9123C15.8143 9.38887 17.2163 7.46789 18.4529 5.3063C19.2027 3.99555 18.8515 2.24782 17.333 1.86022C15.6707 1.43589 13.5159 1.60999 11.6146 3.39795M3.16167 11.7309C2.46688 8.61421 4.90852 4.94326 10.638 8.16195M3.16167 11.7309C3.68109 11.7415 4.84794 11.9765 5.96196 12.7704M6.20489 6.82959C6.25744 5.21242 7.85212 2.50408 11.6146 3.39795M11.6146 3.39795C12.42 3.5893 13.3247 3.94571 14.335 4.51324" stroke="#0F1A2A" stroke-width="1.5" stroke-linecap="round" stroke-linejoin="round"/>
</svg>
