<svg width="21" height="20" viewBox="0 0 21 20" fill="none" xmlns="http://www.w3.org/2000/svg">
<path d="M8.83329 13.2039L6.07142 15.9658C6.7146 16.4242 6.80125 17.388 6.23789 17.9514C5.72851 18.4608 4.90265 18.4608 4.39327 17.9514C3.99169 17.5498 3.85423 16.899 4.08584 16.4142C3.601 16.6458 2.95024 16.5083 2.54866 16.1068C2.03928 15.5974 2.03928 14.7715 2.54866 14.2622C3.11202 13.6988 4.07586 13.7854 4.53424 14.4286L7.29611 11.6667" stroke="#0F1A2A" stroke-width="1.5" stroke-linejoin="round"/>
<path d="M10.9473 3.06833C12.8926 1.123 15.6411 1.27771 17.4317 3.06833C18.8608 4.49738 19.2479 6.5365 18.3571 8.29057C16.8777 6.32954 13.5482 7.83199 14.1712 10.2967C12.7977 9.72483 11.6188 11.4906 12.5649 12.5527C10.5818 13.3599 8.6087 13.6985 7.70511 12.7949C5.91449 11.0043 9.00199 5.01365 10.9473 3.06833Z" stroke="#0F1A2A" stroke-width="1.5" stroke-linejoin="round"/>
</svg>
