<svg width="20" height="20" viewBox="0 0 20 20" fill="none" xmlns="http://www.w3.org/2000/svg">
<path d="M15.2087 8.75H16.3669C17.9098 8.75 18.3684 8.97126 18.3312 10.0698C18.2697 11.8895 17.4492 14.0039 14.1666 14.5833" stroke="#0F1A2A" stroke-width="1.5" stroke-linecap="round"/>
<path d="M4.95518 17.1789C2.14317 15.0169 1.72886 11.9502 1.66782 8.75026C1.64145 7.36791 2.04268 7.0835 3.88261 7.0835H12.784C14.6239 7.0835 15.0251 7.36791 14.9988 8.75026C14.9377 11.9502 14.5234 15.0169 11.7114 17.1789C10.9111 17.7942 10.2359 17.9168 9.09943 17.9168H7.56716C6.43067 17.9168 5.75544 17.7942 4.95518 17.1789Z" stroke="#0F1A2A" stroke-width="1.5" stroke-linecap="round"/>
<path d="M8.33325 7.0835V11.2502M7.08678 13.5807L7.33005 12.0378C7.4013 11.5858 7.82846 11.2502 8.33229 11.2502C8.83612 11.2502 9.26328 11.5858 9.33453 12.0378L9.57779 13.5807C9.70888 14.4121 6.9717 14.3106 7.08678 13.5807Z" stroke="#0F1A2A" stroke-width="1.5" stroke-linecap="round" stroke-linejoin="round"/>
<path d="M9.42403 2.0835C8.96838 2.36567 8.33429 3.3335 8.33429 4.5835M6.28301 3.3335C6.28301 3.3335 5.83325 3.75016 5.83325 4.5835M11.6676 3.3335C11.4398 3.47458 11.2499 4.16683 11.2499 4.5835" stroke="#0F1A2A" stroke-width="1.5" stroke-linecap="round" stroke-linejoin="round"/>
</svg>
