<svg width="20" height="20" viewBox="0 0 20 20" fill="none" xmlns="http://www.w3.org/2000/svg">
<path d="M15 7.5L13.7682 15.3447C13.5607 16.666 13.4569 17.3267 12.9887 17.7203C11.9887 18.5608 7.95583 18.5142 7.01131 17.7203C6.54306 17.3267 6.43931 16.666 6.23182 15.3447L5 7.5" stroke="#0F1A2A" stroke-width="1.5" stroke-linecap="round"/>
<path d="M5 7.49992L5.4287 6.42818C6.17639 4.55895 7.98678 3.33325 10 3.33325C12.0132 3.33325 13.8236 4.55895 14.5713 6.42817L15 7.49992" stroke="#0F1A2A" stroke-width="1.5"/>
<path d="M4.16663 7.5L15.8333 7.5" stroke="#0F1A2A" stroke-width="1.5" stroke-linecap="round"/>
<path d="M10.8333 7.49984L13.3333 1.6665" stroke="#0F1A2A" stroke-width="1.5" stroke-linecap="round"/>
<path d="M8.3407 13.7498H8.33325M11.6666 14.9998H11.6591M10.8426 11.6665H10.8352" stroke="#0F1A2A" stroke-width="2" stroke-linecap="round" stroke-linejoin="round"/>
</svg>
