<svg width="21" height="20" viewBox="0 0 21 20" fill="none" xmlns="http://www.w3.org/2000/svg">
<path d="M10.5 10.1279C12.5223 10.1279 14.4245 9.84059 16.0829 9.33505C16.6061 9.17556 16.8677 9.09582 17.04 9.24856C17.2122 9.4013 17.1794 9.64469 17.1136 10.1315C16.6866 13.2918 13.8681 15.8334 10.5 15.8334C7.13201 15.8334 4.31344 13.2918 3.88649 10.1315C3.82073 9.64469 3.78785 9.4013 3.96011 9.24856C4.13238 9.09582 4.39397 9.17556 4.91717 9.33505C6.57557 9.84059 8.47774 10.1279 10.5 10.1279Z" stroke="#0F1A2A" stroke-width="1.5" stroke-linejoin="round"/>
<path d="M11.75 2.91675C11.75 3.6071 11.1904 4.16675 10.5 4.16675C9.80964 4.16675 9.25 3.6071 9.25 2.91675C9.25 2.22639 9.80964 1.66675 10.5 1.66675C11.1904 1.66675 11.75 2.22639 11.75 2.91675Z" stroke="#0F1A2A" stroke-width="1.5"/>
<path d="M15.5979 7.6465C15.6788 8.05273 16.0737 8.31646 16.4799 8.23555C16.8861 8.15464 17.1499 7.75974 17.069 7.3535L15.5979 7.6465ZM3.9312 7.3535C3.85029 7.75974 4.11401 8.15464 4.52025 8.23555C4.92648 8.31646 5.32139 8.05273 5.4023 7.6465L3.9312 7.3535ZM11.745 2.5L11.5752 3.23052C13.5444 3.68837 15.1507 5.40156 15.5979 7.6465L16.3334 7.5L17.069 7.3535C16.5196 4.59542 14.5194 2.37504 11.9148 1.76948L11.745 2.5ZM4.66675 7.5L5.4023 7.6465C5.84942 5.40156 7.45572 3.68837 9.42501 3.23052L9.25517 2.5L9.08533 1.76948C6.48075 2.37504 4.48052 4.59542 3.9312 7.3535L4.66675 7.5Z" fill="#0F1A2A"/>
<path d="M10.5 15.8335V17.3335C10.5 17.8858 10.0523 18.3335 9.5 18.3335H8H13" stroke="#0F1A2A" stroke-width="1.5" stroke-linecap="round" stroke-linejoin="round"/>
<path d="M6.40646 4.16675C6.01384 5.38474 7.25358 6.34303 8.91393 6.02369C10.3512 5.74725 10.0079 6.2074 11.7885 6.57656C13.8731 7.00873 14.6667 5.79074 14.6667 4.97874" stroke="#0F1A2A" stroke-width="1.5" stroke-linecap="round" stroke-linejoin="round"/>
</svg>
