<svg width="21" height="20" viewBox="0 0 21 20" fill="none" xmlns="http://www.w3.org/2000/svg">
<path d="M14.6666 13.3333C16.9678 13.3333 18.8333 11.4678 18.8333 9.16659C18.8333 8.2284 18.5232 7.36263 18 6.66618C16.2287 4.3087 13.8333 3.33325 10.5 3.33325C7.16663 3.33325 2.16663 5.72082 2.16663 8.74992C2.16663 9.90051 3.09937 10.8333 4.24996 10.8333H7.16663C8.26975 10.8062 10.5 11.2499 12.363 12.6391C13.0228 13.0777 13.8149 13.3333 14.6666 13.3333Z" stroke="#0F1A2A" stroke-width="1.5"/>
<path d="M2.16663 8.75V9.16667C2.16663 11.5237 2.16663 12.7022 2.89886 13.4344C3.63109 14.1667 4.8096 14.1667 7.16663 14.1667C8.26975 14.1396 10.5 14.5833 12.363 15.9725C13.0228 16.4111 13.8149 16.6667 14.6666 16.6667C16.9678 16.6667 18.8333 14.8012 18.8333 12.5V9.16667" stroke="#0F1A2A" stroke-width="1.5"/>
<path d="M15.9166 9.1665C15.9166 9.85686 15.357 10.4165 14.6666 10.4165C13.9763 10.4165 13.4166 9.85686 13.4166 9.1665C13.4166 8.47615 13.9763 7.9165 14.6666 7.9165C15.357 7.9165 15.9166 8.47615 15.9166 9.1665Z" stroke="#0F1A2A" stroke-width="1.5"/>
</svg>
