<svg width="20" height="20" viewBox="0 0 20 20" fill="none" xmlns="http://www.w3.org/2000/svg">
<path d="M8.51674 15.6843L15.5661 10.9427C16.7705 10.1326 17.3727 9.72755 17.4821 8.98999C17.5915 8.25244 17.196 7.7568 16.405 6.76552C14.5897 4.49058 12.1233 2.79462 9.30199 1.98459C8.22857 1.6764 7.69186 1.5223 7.11648 1.84891C6.54111 2.17552 6.35337 2.81311 5.9779 4.0883L3.67207 11.9194C2.59334 15.583 2.05397 17.4148 2.95636 18.1161C3.85875 18.8173 5.41142 17.773 8.51674 15.6843Z" stroke="white" stroke-width="1.5"/>
<path d="M6.25 4.16675C6.25 4.16675 6.69829 4.26525 7.41678 4.48463C9.69346 5.17979 11.7243 6.5274 13.3333 8.33346" stroke="white" stroke-width="1.5" stroke-linecap="round"/>
<path d="M6.66663 14.7783H7.41663C7.41663 13.8775 8.07812 13.25 8.77217 13.25V12.5V11.75C7.1405 11.75 5.91663 13.1626 5.91663 14.7783H6.66663ZM8.77217 12.5V13.25C9.38061 13.25 9.95627 13.7236 10.0969 14.4526L10.8333 14.3105L11.5697 14.1685C11.3115 12.8297 10.1931 11.75 8.77217 11.75V12.5ZM7.59372 16.6667L8.03677 16.0615C7.67434 15.7962 7.41663 15.3301 7.41663 14.7783H6.66663H5.91663C5.91663 15.7983 6.39431 16.7181 7.15067 17.2718L7.59372 16.6667Z" fill="white"/>
<path d="M6.66663 8.70391H5.91663C5.91663 9.52403 5.31711 10.0834 4.7025 10.0834V10.8334V11.5834C6.2574 11.5834 7.41663 10.236 7.41663 8.70391H6.66663ZM5.27642 6.66675L5.0409 7.37881C5.51628 7.53604 5.91663 8.04364 5.91663 8.70391H6.66663H7.41663C7.41663 7.44494 6.64609 6.32981 5.51193 5.95469L5.27642 6.66675ZM4.7025 10.8334V10.0834C4.59249 10.0834 4.48683 10.0669 4.38659 10.0362L4.16663 10.7532L3.94666 11.4702C4.18711 11.544 4.44095 11.5834 4.7025 11.5834V10.8334Z" fill="white"/>
<path d="M10.8398 9.16675L10.8324 9.16675" stroke="white" stroke-width="2" stroke-linecap="round" stroke-linejoin="round"/>
</svg>
