<svg width="57" height="56" viewBox="0 0 57 56" fill="none" xmlns="http://www.w3.org/2000/svg">
<rect x="0.833252" width="56" height="56" rx="28" fill="#94A3B8"/>
<path d="M17.4165 28.0001C17.4165 22.7753 17.4165 20.163 19.0396 18.5399C20.6627 16.9167 23.2751 16.9167 28.4998 16.9167C33.7246 16.9167 36.3369 16.9167 37.9601 18.5399C39.5832 20.163 39.5832 22.7753 39.5832 28.0001C39.5832 33.2248 39.5832 35.8372 37.9601 37.4603C36.3369 39.0834 33.7246 39.0834 28.4998 39.0834C23.2751 39.0834 20.6627 39.0834 19.0396 37.4603C17.4165 35.8372 17.4165 33.2248 17.4165 28.0001Z" stroke="white" stroke-width="1.5"/>
<circle cx="33.7499" cy="22.75" r="1.75" stroke="white" stroke-width="1.5"/>
<path d="M33.1665 39.6668C32.4438 37.0708 30.7568 34.746 28.3558 33.0567C25.7671 31.2353 22.5168 30.2712 19.1849 30.3366C18.7892 30.3357 18.3939 30.3483 17.9999 30.3744" stroke="white" stroke-width="1.5" stroke-linejoin="round"/>
<path d="M29.6665 35.0001C31.6516 33.4523 33.7901 32.6583 35.9504 32.6668C37.1754 32.6656 38.3946 32.9253 39.5832 33.4387" stroke="white" stroke-width="1.5" stroke-linejoin="round"/>
</svg>
